<mxfile host="Electron" modified="2024-04-23T08:38:47.943Z" agent="Mozilla/5.0 (Windows NT 10.0; Win64; x64) AppleWebKit/537.36 (KHTML, like Gecko) draw.io/23.0.2 Chrome/120.0.6099.109 Electron/28.1.0 Safari/537.36" etag="XU9vLmAnjdJD2DIuVPnv" version="23.0.2" type="device">
  <diagram name="Page-1" id="ZAeT7uUp-bs1DtISQrLA">
    <mxGraphModel dx="1110" dy="702" grid="1" gridSize="10" guides="1" tooltips="1" connect="1" arrows="1" fold="1" page="1" pageScale="1" pageWidth="850" pageHeight="1100" math="0" shadow="0">
      <root>
        <mxCell id="0" />
        <mxCell id="1" parent="0" />
        <mxCell id="cegJzy45TkoHLQF3x1ZN-9" style="edgeStyle=orthogonalEdgeStyle;rounded=0;orthogonalLoop=1;jettySize=auto;html=1;exitX=1;exitY=0.5;exitDx=0;exitDy=0;" parent="1" source="cegJzy45TkoHLQF3x1ZN-1" target="cegJzy45TkoHLQF3x1ZN-6" edge="1">
          <mxGeometry relative="1" as="geometry" />
        </mxCell>
        <mxCell id="cegJzy45TkoHLQF3x1ZN-1" value="" style="rounded=0;whiteSpace=wrap;html=1;dashed=1;" parent="1" vertex="1">
          <mxGeometry x="40" y="85" width="150" height="70" as="geometry" />
        </mxCell>
        <mxCell id="cegJzy45TkoHLQF3x1ZN-2" value="" style="dashed=0;outlineConnect=0;html=1;align=center;labelPosition=center;verticalLabelPosition=bottom;verticalAlign=top;shape=mxgraph.webicons.adobe_pdf;fillColor=#F40C0C;gradientColor=#610603;" parent="1" vertex="1">
          <mxGeometry x="100" y="102" width="36" height="36" as="geometry" />
        </mxCell>
        <mxCell id="cegJzy45TkoHLQF3x1ZN-3" value="" style="html=1;strokeWidth=1;shadow=0;dashed=0;shape=mxgraph.ios7.misc.text_size;fillColor=#007AFF;strokeColor=none;buttonText=;strokeColor2=#222222;fontColor=#222222;fontSize=8;verticalLabelPosition=bottom;verticalAlign=top;align=center;sketch=0;" parent="1" vertex="1">
          <mxGeometry x="60" y="102" width="36" height="36" as="geometry" />
        </mxCell>
        <mxCell id="cegJzy45TkoHLQF3x1ZN-4" value="" style="sketch=0;pointerEvents=1;shadow=0;dashed=0;html=1;strokeColor=none;labelPosition=center;verticalLabelPosition=bottom;verticalAlign=top;align=center;shape=mxgraph.mscae.other.powerpoint;fillColor=#DE5D24;" parent="1" vertex="1">
          <mxGeometry x="140" y="102" width="36" height="36" as="geometry" />
        </mxCell>
        <mxCell id="cegJzy45TkoHLQF3x1ZN-5" value="不同类型的文档" style="text;html=1;strokeColor=none;fillColor=none;align=center;verticalAlign=middle;whiteSpace=wrap;rounded=0;" parent="1" vertex="1">
          <mxGeometry x="73.25" y="155" width="89.5" height="30" as="geometry" />
        </mxCell>
        <mxCell id="cegJzy45TkoHLQF3x1ZN-13" style="edgeStyle=orthogonalEdgeStyle;rounded=0;orthogonalLoop=1;jettySize=auto;html=1;exitX=1;exitY=0.5;exitDx=0;exitDy=0;entryX=0;entryY=0.5;entryDx=0;entryDy=0;" parent="1" source="cegJzy45TkoHLQF3x1ZN-6" target="cegJzy45TkoHLQF3x1ZN-12" edge="1">
          <mxGeometry relative="1" as="geometry" />
        </mxCell>
        <mxCell id="cegJzy45TkoHLQF3x1ZN-6" value="" style="rounded=0;whiteSpace=wrap;html=1;dashed=1;" parent="1" vertex="1">
          <mxGeometry x="300" y="85" width="150" height="70" as="geometry" />
        </mxCell>
        <mxCell id="cegJzy45TkoHLQF3x1ZN-7" value="提取" style="rounded=0;whiteSpace=wrap;html=1;fillColor=#dae8fc;strokeColor=#6c8ebf;" parent="1" vertex="1">
          <mxGeometry x="315" y="100" width="55" height="40" as="geometry" />
        </mxCell>
        <mxCell id="cegJzy45TkoHLQF3x1ZN-8" value="分割" style="rounded=0;whiteSpace=wrap;html=1;fillColor=#d5e8d4;strokeColor=#82b366;" parent="1" vertex="1">
          <mxGeometry x="380" y="100" width="55" height="40" as="geometry" />
        </mxCell>
        <mxCell id="cegJzy45TkoHLQF3x1ZN-10" value="不同类型的 Loader&lt;br&gt;（TextLoader、PyPDFLoader等)&lt;br&gt;" style="text;html=1;strokeColor=none;fillColor=none;align=center;verticalAlign=middle;whiteSpace=wrap;rounded=0;" parent="1" vertex="1">
          <mxGeometry x="273.96" y="160" width="202.07" height="30" as="geometry" />
        </mxCell>
        <mxCell id="cegJzy45TkoHLQF3x1ZN-11" value="&lt;font style=&quot;font-size: 12px;&quot;&gt;非结构化数据&lt;/font&gt;" style="text;html=1;strokeColor=none;fillColor=none;align=center;verticalAlign=middle;whiteSpace=wrap;rounded=0;" parent="1" vertex="1">
          <mxGeometry x="200" y="90" width="80" height="30" as="geometry" />
        </mxCell>
        <mxCell id="cegJzy45TkoHLQF3x1ZN-25" style="edgeStyle=orthogonalEdgeStyle;rounded=0;orthogonalLoop=1;jettySize=auto;html=1;exitX=1;exitY=0.5;exitDx=0;exitDy=0;entryX=1;entryY=0.5;entryDx=0;entryDy=0;" parent="1" source="cegJzy45TkoHLQF3x1ZN-12" target="cegJzy45TkoHLQF3x1ZN-16" edge="1">
          <mxGeometry relative="1" as="geometry" />
        </mxCell>
        <mxCell id="cegJzy45TkoHLQF3x1ZN-12" value="文本块的向量表示&lt;br&gt;(Word2Vec、GPT、BERT 等)" style="rounded=0;whiteSpace=wrap;html=1;fillColor=#ffe6cc;strokeColor=#d79b00;" parent="1" vertex="1">
          <mxGeometry x="530" y="85" width="170" height="70" as="geometry" />
        </mxCell>
        <mxCell id="cegJzy45TkoHLQF3x1ZN-14" value="&lt;font style=&quot;font-size: 12px;&quot;&gt;文本块&lt;/font&gt;" style="text;html=1;strokeColor=none;fillColor=none;align=center;verticalAlign=middle;whiteSpace=wrap;rounded=0;" parent="1" vertex="1">
          <mxGeometry x="450" y="90" width="80" height="30" as="geometry" />
        </mxCell>
        <mxCell id="cegJzy45TkoHLQF3x1ZN-15" value="不同的 Embeding 模型&lt;br&gt;(如 OpenAI、HuggingFace 等)" style="text;html=1;strokeColor=none;fillColor=none;align=center;verticalAlign=middle;whiteSpace=wrap;rounded=0;" parent="1" vertex="1">
          <mxGeometry x="520" y="160" width="170" height="30" as="geometry" />
        </mxCell>
        <mxCell id="cegJzy45TkoHLQF3x1ZN-16" value="" style="rounded=0;whiteSpace=wrap;html=1;dashed=1;" parent="1" vertex="1">
          <mxGeometry x="520" y="240" width="170" height="70" as="geometry" />
        </mxCell>
        <mxCell id="cegJzy45TkoHLQF3x1ZN-47" style="edgeStyle=orthogonalEdgeStyle;rounded=0;orthogonalLoop=1;jettySize=auto;html=1;exitX=0.5;exitY=1;exitDx=0;exitDy=0;entryX=1;entryY=0.25;entryDx=0;entryDy=0;" parent="1" source="cegJzy45TkoHLQF3x1ZN-17" target="cegJzy45TkoHLQF3x1ZN-27" edge="1">
          <mxGeometry relative="1" as="geometry" />
        </mxCell>
        <mxCell id="cegJzy45TkoHLQF3x1ZN-17" value="不同的向量数据库&lt;br&gt;(FAISS、Milvus 等)" style="text;html=1;strokeColor=none;fillColor=none;align=center;verticalAlign=middle;whiteSpace=wrap;rounded=0;" parent="1" vertex="1">
          <mxGeometry x="500.12" y="320" width="209.75" height="30" as="geometry" />
        </mxCell>
        <mxCell id="cegJzy45TkoHLQF3x1ZN-20" value="" style="shape=image;aspect=fixed;image=data:image/svg+xml,PHN2ZyBmaWxsPSJub25lIiBoZWlnaHQ9IjM1IiB2aWV3Qm94PSIwIDAgMTQ4IDM1IiB3aWR0aD0iMTQ4IiB4bWxucz0iaHR0cDovL3d3dy53My5vcmcvMjAwMC9zdmciPjxnIGZpbGw9IiM0ZmM0ZjkiPjxwYXRoIGQ9Im0zNS4yNjg4IDUuNDgyMTljLTYuNjE4OS02LjY0MjkyLTE3LjM1MTktNi42NDI5Mi0yMy45NzA4IDBsLTEwLjgxODM2OSAxMC44NTczMWMtLjYzOTUwOC42NDI2LS42Mzk1MDggMS42NzcxIDAgMi4zMTk2bDEwLjgxODM2OSAxMC44NTc0YzYuNjE4OSA2LjY0MjkgMTcuMzUxOSA2LjY0MjkgMjMuOTcwOC4wMTA5IDYuNjI5Ni02LjYzMjEgNi42Mjk2LTE3LjQwMjMgMC0yNC4wNDUyMXptLTIuNTU4IDIwLjg1NDQxYy00Ljg2MDMgNC44Nzg3LTEyLjc0NzUgNC44Nzg3LTE3LjYwNzggMGwtNy45NjE4My03Ljk4MjRjLS40Njg5OC0uNDY4My0uNDY4OTgtMS4yMzA2IDAtMS43MDk3bDcuOTUxMjMtNy45NzE1M2M0Ljg2MDItNC44Nzg3NCAxMi43NDc1LTQuODc4NzQgMTcuNjA3NyAwIDQuODcxIDQuODc4NzMgNC44NzEgMTIuNzg0OTMuMDEwNyAxNy42NjM2M3oiLz48cGF0aCBkPSJtNDkuNDQ0NCAxNi4zNTAzLTQuNzY0My00Ljg2NzhjLS4yODc4LS4yOTQxLS43Njc1LS4wMjE4LS42NzE1LjM4MTEuODIwNyAzLjcxMzUuODIwNyA3LjU5MDQgMCAxMS4zMDM5LS4wODUzLjQwMjkuMzk0My42NjQyLjY3MTUuMzgxMWw0Ljc2NDMtNC44Njc4Yy42Mjg4LS42NTM0LjYyODgtMS42ODggMC0yLjMzMDV6Ii8+PHBhdGggZD0ibTIzLjk1OTggMjYuMDQyNmM0LjYwOTIgMCA4LjM0NTYtMy44MTc3IDguMzQ1Ni04LjUyNjkgMC00LjcwOTMtMy43MzY0LTguNTI2OTMtOC4zNDU2LTguNTI2OTMtNC42MDkxIDAtOC4zNDU1IDMuODE3NjMtOC4zNDU1IDguNTI2OTMgMCA0LjcwOTIgMy43MzY0IDguNTI2OSA4LjM0NTUgOC41MjY5eiIvPjxwYXRoIGQ9Im01OS40MjI5IDE2LjAxMjRjMC0uOTA2OS4xNTMtMS42ODg3LjQ1OTEtMi4zNDU0LjMwNi0uNjU2OC43MzQ0LTEuMjE5NiAxLjI4NTQtMS42ODg3LjU1MDktLjQ2OTEgMS4xOTM2LS44MTMxIDEuOTI4Mi0xLjAzMnMxLjU2MTEtLjM0NCAyLjQxODEtLjM0NGMxLjA3MTIgMCAyLjAyLjE4NzYgMi44NzcuNTYyOS44MjY0LjM3NTMgMS41MzAzLjg3NTYgMi4wNTA2IDEuNTMyMy41MjAzLS42NTY3IDEuMTkzOC0xLjE1NyAyLjAyMDItMS41MzIzLjgyNjMtLjM3NTMgMS43NzUxLS41NjI5IDIuODQ2My0uNTYyOS44NTcxIDAgMS42NTI4LjEyNTEgMi4zODc0LjM0NC43MzQ1LjIxODkgMS4zNzczLjU2MjkgMS45MjgyIDEuMDMycy45Nzk0IDEuMDMxOSAxLjI4NTUgMS42ODg3Yy4zMDYxLjY1NjcuNDU5MiAxLjQzODUuNDU5MiAyLjM0NTR2OC45NDM4aC00LjMxNTd2LTcuNjkzYzAtLjkzODEtLjE4MzUtMS41OTQ4LS41NTA4LTIuMDAxNC0uMzY3My0uNDA2NS0uODg3Ni0uNTk0MS0xLjU5MTYtLjU5NDEtLjcwMzkgMC0xLjI1NS4yNTAxLTEuNzE0MS43MTkyLS40Mjg1LjQ2OTEtLjY0MjcgMS4yMTk2LS42NDI3IDIuMjgyOXY3LjMxNzZoLTQuMzE1NXYtNy4zMTc2YzAtMS4wMzItLjIxNDMtMS43ODI1LS42NDI4LTIuMjgyOS0uNDI4NS0uNDY5MS0uOTc5NS0uNzE5Mi0xLjY4MzUtLjcxOTItLjY3MzMgMC0xLjIyNDEuMTg3Ni0xLjU5MTQuNTk0MS0uMzk4LjQwNjYtLjU4MTcgMS4wNjMzLS41ODE3IDIuMDAxNHY3LjY5M2gtNC4zMTU0eiIvPjxwYXRoIGQ9Im04NC45NDkyIDcuMjU2MTVjMC0uNjg3OTkuMjE0My0xLjI4MjE2LjY3MzQtMS43NTEyNHMxLjAxLS43MTkyNyAxLjcxNC0uNzE5MjdjLjY3MzMgMCAxLjI1NDkuMjUwMTkgMS43MTQuNzE5MjdzLjcwMzkgMS4wNjMyNS43MDM5IDEuNzUxMjRjMCAuNjg3OTctLjI0NDggMS4yODIxNS0uNzAzOSAxLjc1MTIzcy0xLjA0MDcuNjg3OTgtMS43MTQuNjg3OThjLS42NzM0IDAtMS4yNTQ5LS4yMTg5LTEuNzE0LS42ODc5OC0uNDI4NS0uNTAwMzYtLjY3MzQtMS4wNjMyNi0uNjczNC0xLjc1MTIzem0uMjQ0OSA1LjY5MTQ1YzAtLjcxOTIuMjE0Mi0xLjIxOTYuNjEyMS0xLjUwMS4zOTc5LS4yODE1Ljk0ODgtLjQzNzggMS42MjIyLS40Mzc4LjQ4OTcgMCAuOTE4Mi4wNjI1IDEuMzE2MS4xODc2cy42NDI3LjE4NzcuNzY1Mi4yMTg5djEzLjU3MjFoLTQuMzE1NnoiLz48cGF0aCBkPSJtOTMuNDg4MyA2LjcyNDUyYzAtLjcxOTI2LjIxNDItMS4yMTk2MS42MTIxLTEuNTAxMDZzLjk0ODgtLjQzNzgyIDEuNjIyMi0uNDM3ODJjLjQ4OTcgMCAuOTE4Mi4wNjI1NSAxLjMxNjEuMTg3NjRzLjY0MjcuMTg3NjMuNzY1Mi4yMTg5djE5Ljc2MzkyaC00LjMxNTZ6Ii8+PHBhdGggZD0ibTEwNS43IDI0Ljk1NjFjLS41NTEtMS4wMDA3LTEuMTAyLTIuMDMyNy0xLjYyMi0zLjA5NTktLjUyLTEuMDYzMy0xLjAxLTIuMDY0LTEuNDM4LTIuOTcwOS0uNDI5LS45MDY4LS43OTYtMS43MTk5LTEuMDcyLTIuMzQ1NC0uMjc1LS42NTY3LS40NTktMS4wNjMyLS41NTEtMS4yNTA4LS4xNTMtLjM3NTMtLjMwNi0uNzgxOC0uNDU5LTEuMjE5Ny0uMTgzLS40NjktLjI0NS0uODc1Ni0uMjQ1LTEuMjE5NiAwLS41MDAzLjE4NC0uOTM4MS41NTEtMS4zMTM0LjM2OC0uMzQ0Ljg4OC0uNTMxNiAxLjYyMy0uNTMxNi41ODEgMCAxLjA0LjA2MjUgMS40MDguMTg3Ni4zNjcuMTI1MS41NS4xODc3LjYxMi4yMTg5LjMwNi45MDY5LjYxMiAxLjgxMzguOTc5IDIuNzIwNy4zMzcuOTA2OS42NzMgMS43NTEyLjk3OSAyLjUzMy4zMDcuNzgxOC41ODIgMS40Njk4Ljg1NyAyLjA2NC4yNDUuNTk0Mi40MjkgMS4wMDA3LjU1MSAxLjI1MDkuMTIzLS4yNTAyLjI3Ni0uNjU2OC41MjEtMS4yMTk2LjI0NS0uNTYyOS40ODktMS4yMTk3Ljc2NS0xLjkwNzYuMjc1LS42ODguNTUxLTEuNDA3My44MjYtMi4wOTUzLjI3Ni0uNjg3OS41MjEtMS4zMTM0LjcwNC0xLjc4MjUuMTIzLS4yODE0LjIxNS0uNTMxNi4zNjgtLjc4MTguMTIyLS4yNTAxLjMwNi0uNDM3OC40ODktLjYyNTQuMTg0LS4xODc2LjQyOS0uMzEyNy42NzQtLjQwNjYuMjc1LS4wOTM4LjYxMi0uMTI1Ljk3OS0uMTI1cy42NzMuMDMxMi45NzkuMTI1Yy4yNzYuMDYyNi41NTEuMTU2NC43NjYuMjUwMi4yMTQuMDkzOC4zOTguMTg3Ny41Mi4yNTAyLjEyMi4wOTM4LjIxNC4xMjUxLjI0NS4xNTY0LS4wNjEuMzQzOS0uMjQ1LjgxMy0uNTIgMS41MDEtLjI3Ni42NTY3LS41ODIgMS40Mzg1LS45NDkgMi4yODI5LS4zNjguODQ0My0uNzY1IDEuNzUxMi0xLjE5NCAyLjY4OTQtLjQyOC45MzgxLS44NTcgMS44NDUtMS4yNTUgMi43MjA2LS4zOTguODc1Ny0uNzk2IDEuNjU3NS0xLjE2MyAyLjM3NjctLjM2Ny42ODgtLjY0MyAxLjI1MDktLjgyNiAxLjYyNjJoLTQuMTAyeiIvPjxwYXRoIGQ9Im0xMjIuMjU5IDE4LjQ1MTVjMCAxLjkwNzYuODI2IDIuODQ1OCAyLjUxIDIuODQ1OCAxLjY4MyAwIDIuNTEtLjkzODIgMi41MS0yLjg0NTh2LTUuNTAzOGMwLS43MTkzLjIxNC0xLjIxOTcuNjEyLTEuNTAxMS4zOTgtLjI4MTUuOTQ4LS40Mzc4IDEuNjIyLS40Mzc4LjQ5IDAgLjkxOC4wNjI1IDEuMzE2LjE4NzZzLjY0My4xODc3Ljc2NS4yMTg5djcuODQ5M2MwIDEuMDMyLS4xODQgMS45MDc2LS41MiAyLjY1ODEtLjMzNy43NTA2LS44MjcgMS4zNzYtMS40MzkgMS44NzYzLS42MTIuNTAwNC0xLjMxNi44NzU3LTIuMTczIDEuMTI1OC0uODI2LjI1MDItMS43NDQuMzc1My0yLjY5My4zNzUzLS45OCAwLTEuODY3LS4xMjUxLTIuNjk0LS4zNzUzLS44MjYtLjI1MDEtMS41NjEtLjYyNTQtMi4xNzMtMS4xMjU4LS42MTItLjUwMDMtMS4wNzEtMS4xMjU3LTEuNDM4LTEuODc2My0uMzM3LS43NTA1LS41MjEtMS42NTc0LS41MjEtMi42NTgxdi02LjMxNjljMC0uNzE5My4yMTUtMS4yMTk3LjYxMy0xLjUwMTEuMzk3LS4yODE1Ljk0OC0uNDM3OCAxLjYyMi0uNDM3OC40ODkgMCAuOTE4LjA2MjUgMS4zMTYuMTg3NnMuNjQzLjE4NzcuNzY1LjIxODl6Ii8+PHBhdGggZD0ibTEzNS45NzEgMjAuNzAzMmMuMTUzLjEyNS4zNjcuMjUwMS43MDQuNDA2NXMuNzM1LjMxMjcgMS4xOTQuNDM3OC45NzkuMjUwMiAxLjU2MS4zNDRjLjU4MS4wOTM4IDEuMTkzLjE1NjQgMS44MzYuMTU2NC43MzUgMCAxLjI4Ni0uMDYyNiAxLjY1My0uMjE4OS4zNjctLjEyNTEuNTUxLS4zNzUzLjU1MS0uNzE5MyAwLS4zNzUzLS4xNTMtLjYyNTQtLjQ1OS0uNzUwNXMtLjc5Ni0uMjUwMi0xLjQ2OS0uMzQ0bC0xLjQwOC0uMTU2NGMtLjcwNC0uMDkzOC0xLjM3OC0uMjE4OS0yLjAyLS40MDY1LS42NDMtLjE4NzYtMS4yMjUtLjQzNzgtMS43MTQtLjc4MTgtLjQ5LS4zNDQtLjg4OC0uNzgxOC0xLjE2My0xLjMxMzQtLjI3Ni0uNTMxNy0uNDI5LTEuMTg4NC0uNDI5LTIuMDAxNSAwLS42ODc5LjEyMi0xLjMxMzQuMzY3LTEuODc2M3MuNjEyLTEuMDYzMiAxLjEzMy0xLjUwMWMuNTItLjQzNzggMS4xOTMtLjc4MTggMS45ODktMS4wMDA3Ljc5Ni0uMjUwMiAxLjc3NS0uMzc1MyAyLjg3Ny0uMzc1MyAxLjEzMyAwIDIuMDgyLjA2MjUgMi45MDguMjE4OXMxLjUuMzc1MyAyLjExMi42ODhjLjMzNy4xODc2LjYxMi40MDY1LjgyNi42NTY3LjIxNS4yNTAyLjMwNi41OTQyLjMwNi45Njk0IDAgLjI4MTUtLjA2MS41NjI5LS4xODMuNzgxOC0uMTIzLjIxODktLjI0NS40Mzc4LS4zOTguNTk0MnMtLjMwNi4yODE1LS40MjkuMzc1M2MtLjEyMi4wOTM4LS4yMTQuMTU2My0uMjQ1LjE1NjMtLjA2MS0uMDYyNS0uMjE0LS4xNTYzLS40MjgtLjMxMjctLjI0NS0uMTU2NC0uNTUxLS4yODE0LS45NzktLjQzNzgtLjM5OC0uMTI1MS0uODg4LS4yNTAyLTEuNDM5LS4zNzUzcy0xLjE5NC0uMTU2My0xLjkyOC0uMTU2M2MtLjc5NiAwLTEuMzc4LjA5MzgtMS42ODQuMjgxNC0uMzA2LjE4NzctLjQ1OS40Mzc4LS40NTkuNzUwNSAwIC4zMTI4LjE1My41MzE3LjQyOS42NTY4LjI3NS4xMjUuNzA0LjI1MDEgMS4yODUuMzQ0bDIuNDQ5LjM0MzljLjYxMi4wOTM5IDEuMTkzLjIxOSAxLjc0NC40MDY2czEuMDcyLjQzNzggMS41Ljc1MDVjLjQyOS4zNDQuNzk2Ljc1MDUgMS4wNDEgMS4yNTA5LjI0NS41MDAzLjM5OCAxLjEyNTguMzk4IDEuODc2MyAwIDEuNTMyMy0uNTgyIDIuNzIwNy0xLjcxNCAzLjU5NjMtMS4xMzMuODQ0My0yLjcyNCAxLjI4MjItNC43NDQgMS4yODIyLTEuMDQxIDAtMS45OS0uMDYyNi0yLjgxNi0uMjE5LS44MjctLjE1NjMtMS41LS4zMTI3LTIuMTEyLS41MDAzLS41ODItLjE4NzYtMS4wNzEtLjQwNjUtMS40MzktLjU5NDItLjM2Ny0uMjE4OS0uNjEyLS4zNzUyLS43NjUtLjQ2OTF6Ii8+PC9nPjwvc3ZnPg==;" parent="1" vertex="1">
          <mxGeometry x="552" y="249.99999999999997" width="99" height="23.41" as="geometry" />
        </mxCell>
        <mxCell id="cegJzy45TkoHLQF3x1ZN-22" value="" style="shape=image;aspect=fixed;image=data:image/svg+xml,PD94bWwgdmVyc2lvbj0iMS4wIiBlbmNvZGluZz0iVVRGLTgiPz4KPHN2ZyB3aWR0aD0iMzJweCIgaGVpZ2h0PSIzMnB4IiB2aWV3Qm94PSIwIDAgMzIgMzIiIHZlcnNpb249IjEuMSIgeG1sbnM9Imh0dHA6Ly93d3cudzMub3JnLzIwMDAvc3ZnIiB4bWxuczp4bGluaz0iaHR0cDovL3d3dy53My5vcmcvMTk5OS94bGluayI+CiAgICA8IS0tIEdlbmVyYXRvcjogU2tldGNoIDU0LjEgKDc2NDkwKSAtIGh0dHBzOi8vc2tldGNoYXBwLmNvbSAtLT4KICAgIDx0aXRsZT5pY29uIC8gcHJvZHVjdC1sb2dvIC8gMzJ4MzJweCAvIGVsYXN0aWNzZWFyY2ggLyBjb2xvcjwvdGl0bGU+CiAgICA8ZGVzYz5DcmVhdGVkIHdpdGggU2tldGNoLjwvZGVzYz4KICAgIDxkZWZzPgogICAgICAgIDxwb2x5Z29uIGlkPSJwYXRoLTEiIHBvaW50cz0iMC42NDM4IDAuMDAwNSAyNy40NzkgMC4wMDA1IDI3LjQ3OSA5LjAwMDUgMC42NDM4IDkuMDAwNSI+PC9wb2x5Z29uPgogICAgICAgIDxwb2x5Z29uIGlkPSJwYXRoLTMiIHBvaW50cz0iMC42NDM3IDAuMDAwNCAyNy40NzkgMC4wMDA0IDI3LjQ3OSA5IDAuNjQzNyA5Ij48L3BvbHlnb24+CiAgICA8L2RlZnM+CiAgICA8ZyBpZD0iaWNvbi0vLXByb2R1Y3QtbG9nby0vLTMyeDMycHgtLy1lbGFzdGljc2VhcmNoLS8tY29sb3IiIHN0cm9rZT0ibm9uZSIgc3Ryb2tlLXdpZHRoPSIxIiBmaWxsPSJub25lIiBmaWxsLXJ1bGU9ImV2ZW5vZGQiPgogICAgICAgIDxnIGlkPSJHcm91cC05IiB0cmFuc2Zvcm09InRyYW5zbGF0ZSgxLjAwMDAwMCwgMC4wMDAwMDApIj4KICAgICAgICAgICAgPHBhdGggZD0iTTAsMTYuMDAwNCBDMCwxNy4zODQ0IDAuMTk0LDE4LjcxOTQgMC41MjQsMjAuMDAwNCBMMjAsMjAuMDAwNCBDMjIuMjA5LDIwLjAwMDQgMjQsMTguMjA5NCAyNCwxNi4wMDA0IEMyNCwxMy43OTA0IDIyLjIwOSwxMi4wMDA0IDIwLDEyLjAwMDQgTDAuNTI0LDEyLjAwMDQgQzAuMTk0LDEzLjI4MDQgMCwxNC42MTY0IDAsMTYuMDAwNCIgaWQ9IkZpbGwtMSIgZmlsbD0iIzM0Mzc0MSI+PC9wYXRoPgogICAgICAgICAgICA8ZyBpZD0iR3JvdXAtNSIgdHJhbnNmb3JtPSJ0cmFuc2xhdGUoMS4wMDAwMDAsIDAuMDAwMDAwKSI+CiAgICAgICAgICAgICAgICA8bWFzayBpZD0ibWFzay0yIiBmaWxsPSJ3aGl0ZSI+CiAgICAgICAgICAgICAgICAgICAgPHVzZSB4bGluazpocmVmPSIjcGF0aC0xIj48L3VzZT4KICAgICAgICAgICAgICAgIDwvbWFzaz4KICAgICAgICAgICAgICAgIDxnIGlkPSJDbGlwLTQiPjwvZz4KICAgICAgICAgICAgICAgIDxwYXRoIGQ9Ik0yNS45MjM4LDcuNjYxNSBDMjYuNDgyOCw3LjE0NjUgMjcuMDAyOCw2LjU5MzUgMjcuNDc5OCw2LjAwMDUgQzI0LjU0NjgsMi4zNDU1IDIwLjA0OTgsMC4wMDA1IDE0Ljk5OTgsMC4wMDA1IEM4LjY3ODgsMC4wMDA1IDMuMjM4OCwzLjY3NzUgMC42NDM4LDkuMDAwNSBMMjIuNTEwOCw5LjAwMDUgQzIzLjc3NjgsOS4wMDA1IDI0Ljk5MzgsOC41MTk1IDI1LjkyMzgsNy42NjE1IiBpZD0iRmlsbC0zIiBmaWxsPSIjRkVDNTE0IiBtYXNrPSJ1cmwoI21hc2stMikiPjwvcGF0aD4KICAgICAgICAgICAgPC9nPgogICAgICAgICAgICA8ZyBpZD0iR3JvdXAtOCIgdHJhbnNmb3JtPSJ0cmFuc2xhdGUoMS4wMDAwMDAsIDIzLjAwMDAwMCkiPgogICAgICAgICAgICAgICAgPG1hc2sgaWQ9Im1hc2stNCIgZmlsbD0id2hpdGUiPgogICAgICAgICAgICAgICAgICAgIDx1c2UgeGxpbms6aHJlZj0iI3BhdGgtMyI+PC91c2U+CiAgICAgICAgICAgICAgICA8L21hc2s+CiAgICAgICAgICAgICAgICA8ZyBpZD0iQ2xpcC03Ij48L2c+CiAgICAgICAgICAgICAgICA8cGF0aCBkPSJNMjIuNTEwNywwLjAwMDQgTDAuNjQzNywwLjAwMDQgQzMuMjM5Nyw1LjMyMjQgOC42Nzg3LDkuMDAwNCAxNC45OTk3LDkuMDAwNCBDMjAuMDQ5Nyw5LjAwMDQgMjQuNTQ2Nyw2LjY1NDQgMjcuNDc5NywzLjAwMDQgQzI3LjAwMjcsMi40MDY0IDI2LjQ4MjcsMS44NTM0IDI1LjkyMzcsMS4zMzg0IEMyNC45OTM3LDAuNDc5NCAyMy43NzY3LDAuMDAwNCAyMi41MTA3LDAuMDAwNCIgaWQ9IkZpbGwtNiIgZmlsbD0iIzAwQkZCMyIgbWFzaz0idXJsKCNtYXNrLTQpIj48L3BhdGg+CiAgICAgICAgICAgIDwvZz4KICAgICAgICA8L2c+CiAgICA8L2c+Cjwvc3ZnPg==;" parent="1" vertex="1">
          <mxGeometry x="530" y="280" width="22" height="22" as="geometry" />
        </mxCell>
        <mxCell id="cegJzy45TkoHLQF3x1ZN-23" value="" style="shape=image;aspect=fixed;image=data:image/svg+xml,PHN2ZyB3aWR0aD0iMjA5IiBoZWlnaHQ9IjEzNSIgdmlld0JveD0iMCAwIDIwOSAxMzUiIGZpbGw9Im5vbmUiIHhtbG5zPSJodHRwOi8vd3d3LnczLm9yZy8yMDAwL3N2ZyI+CjxlbGxpcHNlIGN4PSIxMzYuMDE5IiBjeT0iNjcuMjMwNCIgcng9IjY2LjY2NjciIHJ5PSI2NCIgZmlsbD0iI0ZGREUyRCIvPgo8ZWxsaXBzZSBjeD0iNjkuMzUyIiBjeT0iNjcuMjMwNCIgcng9IjY2LjY2NjciIHJ5PSI2NCIgZmlsbD0iIzMyN0VGRiIvPgo8cGF0aCBkPSJNMi42ODUyOCA2Ny4yMzA0QzIuNjg1MjcgMzEuODg0MiAzMi41MzI5IDMuMjMwNDcgNjkuMzUxOSAzLjIzMDQ3TDY5LjM1MTkgNjcuMjMwNEwyLjY4NTI4IDY3LjIzMDRaIiBmaWxsPSIjMzI3RUZGIi8+CjxwYXRoIGQ9Ik0xMzYuMDE5IDY3LjIzMDVDMTM2LjAxOSAxMDIuNTc3IDEwNi4xNzEgMTMxLjIzIDY5LjM1MTkgMTMxLjIzTDY5LjM1MTkgNjcuMjMwNUwxMzYuMDE5IDY3LjIzMDVaIiBmaWxsPSIjRkY2NDQ2Ii8+CjxwYXRoIGQ9Ik02OS4zNTIgNjcuMjMwNEM2OS4zNTIgMzEuODg0MiA5OS4xOTk3IDMuMjMwNDcgMTM2LjAxOSAzLjIzMDQ3TDEzNi4wMTkgNjcuMjMwNEw2OS4zNTIgNjcuMjMwNFoiIGZpbGw9IiNGRjY0NDYiLz4KPC9zdmc+Cg==;" parent="1" vertex="1">
          <mxGeometry x="557.5" y="280" width="34.06" height="22" as="geometry" />
        </mxCell>
        <mxCell id="cegJzy45TkoHLQF3x1ZN-24" value="" style="shape=image;aspect=fixed;image=data:image/svg+xml,PHN2ZyB3aWR0aD0iMTEwMiIgaGVpZ2h0PSIyNzgiIHZpZXdCb3g9IjAgMCAxMTAyIDI3OCIgZmlsbD0ibm9uZSIgeG1sbnM9Imh0dHA6Ly93d3cudzMub3JnLzIwMDAvc3ZnIj4KPHBhdGggZD0iTTgyLjMyMjkgMjguNjQ0NEM3MS41MzY3IDE1Ljg0NjkgNjIuMjQ4NSAyLjg0OTQ1IDYwLjM1MSAwLjE0OTk3MUM2MC4xNTEyIC0wLjA0OTk5MDMgNTkuODUxNSAtMC4wNDk5OTAzIDU5LjY1MTggMC4xNDk5NzFDNTcuNzU0MiAyLjg0OTQ1IDQ4LjQ2NjEgMTUuODQ2OSAzNy42Nzk4IDI4LjY0NDRDLTU0LjkwMTkgMTQ2LjcyMSA1Mi4yNjEzIDIyNi40MDYgNTIuMjYxMyAyMjYuNDA2TDUzLjE2MDEgMjI3LjAwNkM1My45NTkgMjM5LjMwMyA1NS45NTY1IDI1NyA1NS45NTY1IDI1N0g1OS45NTE0SDYzLjk0NjNDNjMuOTQ2MyAyNTcgNjUuOTQzOCAyMzkuNDAzIDY2Ljc0MjggMjI3LjAwNkw2Ny42NDE2IDIyNi4zMDZDNjcuNzQxNCAyMjYuNDA2IDE3NC45MDUgMTQ2LjcyMSA4Mi4zMjI5IDI4LjY0NDRaTTU5Ljk1MTQgMjI0LjYwNkM1OS45NTE0IDIyNC42MDYgNTUuMTU3NiAyMjAuNTA3IDUzLjg1OTIgMjE4LjQwOFYyMTguMjA3TDU5LjY1MTggODkuNjMyNkM1OS42NTE4IDg5LjIzMjYgNjAuMjUxMSA4OS4yMzI2IDYwLjI1MTEgODkuNjMyNkw2Ni4wNDM2IDIxOC4yMDdWMjE4LjQwOEM2NC43NDUzIDIyMC41MDcgNTkuOTUxNCAyMjQuNjA2IDU5Ljk1MTQgMjI0LjYwNloiIGZpbGw9IiMwMDFFMkIiLz4KPHBhdGggZD0iTTI2MC41MDEgMTk4LjM2OUwyMTUuODQ1IDg5LjMwMTJMMjE1Ljc0NSA4OUgxODEuMDAxVjk2LjMzMTRIMTg2LjYwOEMxODguMzEgOTYuMzMxNCAxODkuOTEyIDk3LjAzNDQgMTkxLjExNCA5OC4yMzk2QzE5Mi4zMTUgOTkuNDQ0NyAxOTIuOTE2IDEwMS4wNTIgMTkyLjkxNiAxMDIuNzU5TDE5MS45MTUgMjEyLjUzQzE5MS45MTUgMjE1Ljk0NCAxODkuMTEyIDIxOC43NTYgMTg1LjcwNyAyMTguODU3TDE4MCAyMTguOTU3VjIyNi4xODhIMjEzLjg0M1YyMTguOTU3TDIxMC4zMzggMjE4Ljg1N0MyMDYuOTM0IDIxOC43NTYgMjA0LjEzIDIxNS45NDQgMjA0LjEzIDIxMi41M1YxMDkuMDg2TDI1Mi43OTIgMjI2LjE4OEMyNTMuNDkyIDIyNy44OTUgMjU1LjA5NCAyMjkgMjU2Ljg5NyAyMjlDMjU4LjY5OSAyMjkgMjYwLjMwMSAyMjcuODk1IDI2MS4wMDIgMjI2LjE4OEwzMDguNTYyIDExMS42OTdMMzA5LjI2MyAyMTIuNTNDMzA5LjI2MyAyMTYuMDQ1IDMwNi40NTkgMjE4Ljg1NyAzMDIuOTU1IDIxOC45NTdIMjk5LjM1VjIyNi4xODhIMzM5VjIxOC45NTdIMzMzLjU5M0MzMzAuMTg5IDIxOC45NTcgMzI3LjM4NSAyMTYuMDQ1IDMyNy4yODUgMjEyLjYzTDMyNi45ODUgMTAyLjg1OUMzMjYuOTg1IDk5LjM0NDMgMzI5Ljc4OCA5Ni41MzIyIDMzMy4xOTMgOTYuNDMxOEwzMzkgOTYuMzMxNFY4OUgzMDUuMTU3TDI2MC41MDEgMTk4LjM2OVoiIGZpbGw9IiMwMDFFMkIiLz4KPHBhdGggZD0iTTU3MS44NjkgMjE3LjA0NkM1NzAuNzY0IDIxNS45NCA1NzAuMTYyIDIxNC40MzEgNTcwLjE2MiAyMTIuNjJWMTU4LjY5NkM1NzAuMTYyIDE0OC40MzUgNTY3LjE1MSAxNDAuMzg2IDU2MS4xMjcgMTM0LjY1MkM1NTUuMjA1IDEyOC45MTcgNTQ2Ljk3MyAxMjYgNTM2LjczNCAxMjZDNTIyLjM3OCAxMjYgNTExLjAzNSAxMzEuODM1IDUwMy4xMDQgMTQzLjMwNEM1MDMuMDA0IDE0My41MDUgNTAyLjcwMyAxNDMuNjA2IDUwMi40MDIgMTQzLjYwNkM1MDIuMSAxNDMuNjA2IDUwMS45IDE0My40MDQgNTAxLjkgMTQzLjEwM0w0OTguMTg1IDEyOC43MTZINDkxLjk2MUw0NzYgMTM3Ljg3MVYxNDIuOTAxSDQ4MC4xMTZDNDgyLjAyMyAxNDIuOTAxIDQ4My42MjkgMTQzLjQwNCA0ODQuNzM0IDE0NC40MTFDNDg1LjgzOCAxNDUuNDE3IDQ4Ni40NCAxNDYuOTI2IDQ4Ni40NCAxNDkuMDM4VjIxMi41MTlDNDg2LjQ0IDIxNC4zMyA0ODUuODM4IDIxNS44MzkgNDg0LjczNCAyMTYuOTQ2QzQ4My42MjkgMjE4LjA1MiA0ODIuMTI0IDIxOC42NTYgNDgwLjMxNyAyMTguNjU2SDQ3Ni4zMDFWMjI2SDUxMy4wNDJWMjE4LjY1Nkg1MDkuMDI3QzUwNy4yMiAyMTguNjU2IDUwNS43MTQgMjE4LjA1MiA1MDQuNjEgMjE2Ljk0NkM1MDMuNTA2IDIxNS44MzkgNTAyLjkwMyAyMTQuMzMgNTAyLjkwMyAyMTIuNTE5VjE3MC40NjdDNTAyLjkwMyAxNjUuMTM1IDUwNC4xMDggMTU5LjgwMyA1MDYuMzE3IDE1NC41NzFDNTA4LjYyNSAxNDkuNDQxIDUxMi4wMzggMTQ1LjExNSA1MTYuNTU2IDE0MS43OTVDNTIxLjA3MyAxMzguNDc1IDUyNi40OTQgMTM2Ljg2NSA1MzIuNzE4IDEzNi44NjVDNTM5Ljc0NSAxMzYuODY1IDU0NS4wNjYgMTM5LjA3OCA1NDguMzc4IDE0My41MDVDNTUxLjY5MSAxNDcuOTMyIDU1My4zOTggMTUzLjY2NiA1NTMuMzk4IDE2MC41MDdWMjEyLjQxOUM1NTMuMzk4IDIxNC4yMjkgNTUyLjc5NSAyMTUuNzM4IDU1MS42OTEgMjE2Ljg0NUM1NTAuNTg3IDIxNy45NTIgNTQ5LjA4MSAyMTguNTU1IDU0Ny4yNzQgMjE4LjU1NUg1NDMuMjU5VjIyNS44OTlINTgwVjIxOC41NTVINTc1Ljk4NUM1NzQuNDc5IDIxOC43NTcgNTczLjA3MyAyMTguMTUzIDU3MS44NjkgMjE3LjA0NloiIGZpbGw9IiMwMDFFMkIiLz4KPHBhdGggZD0iTTkwNy41NDYgOTcuMjExOUM4OTcuMzkgOTEuODA0IDg4Ni4wMzkgODkgODczLjc5MiA4OUg4MjZWOTYuMzEwNkg4MzAuNjhDODMyLjQ3MiA5Ni4zMTA2IDgzNC4wNjUgOTcuMDExNyA4MzUuNjU4IDk4LjYxNEM4MzcuMTUyIDEwMC4xMTYgODM3Ljk0OCAxMDEuODE5IDgzNy45NDggMTAzLjYyMVYyMTEuMzc5QzgzNy45NDggMjEzLjE4MSA4MzcuMTUyIDIxNC44ODQgODM1LjY1OCAyMTYuMzg2QzgzNC4xNjUgMjE3Ljg4OCA4MzIuNDcyIDIxOC42ODkgODMwLjY4IDIxOC42ODlIODI2VjIyNkg4NzMuNzkyQzg4Ni4wMzkgMjI2IDg5Ny4zOSAyMjMuMTk2IDkwNy41NDYgMjE3Ljc4OEM5MTcuNzAxIDIxMi4zOCA5MjUuOTY2IDIwNC4zNjggOTMxLjk0IDE5NC4xNTRDOTM3LjkxNCAxODMuOTM5IDk0MSAxNzEuNjIxIDk0MSAxNTcuNkM5NDEgMTQzLjU4IDkzNy45MTQgMTMxLjM2MiA5MzEuOTQgMTIxLjA0N0M5MjUuODY2IDExMC42MzIgOTE3LjcwMSAxMDIuNzIgOTA3LjU0NiA5Ny4yMTE5Wk05MjEuNzg0IDE1Ny40QzkyMS43ODQgMTcwLjIxOSA5MTkuNDk0IDE4MS4wMzQgOTE1LjAxMyAxODkuNzQ3QzkxMC41MzMgMTk4LjQ2IDkwNC41NTggMjA0Ljk2OSA4OTcuMTkgMjA5LjE3NkM4ODkuODIzIDIxMy4zODIgODgxLjY1OCAyMTUuNDg1IDg3Mi44OTYgMjE1LjQ4NUg4NjMuMjM4Qzg2MS40NDYgMjE1LjQ4NSA4NTkuODUzIDIxNC43ODQgODU4LjI2IDIxMy4xODFDODU2Ljc2NiAyMTEuNjc5IDg1NS45NyAyMDkuOTc3IDg1NS45NyAyMDguMTc0VjEwNi41MjZDODU1Ljk3IDEwNC43MjMgODU2LjY2NyAxMDMuMTIxIDg1OC4yNiAxMDEuNTE4Qzg1OS43NTMgMTAwLjAxNiA4NjEuNDQ2IDk5LjIxNDkgODYzLjIzOCA5OS4yMTQ5SDg3Mi44OTZDODgxLjY1OCA5OS4yMTQ5IDg4OS44MjMgMTAxLjMxOCA4OTcuMTkgMTA1LjUyNEM5MDQuNTU4IDEwOS43MyA5MTAuNTMzIDExNi4yNCA5MTUuMDEzIDEyNC45NTJDOTE5LjQ5NCAxMzMuNzY1IDkyMS43ODQgMTQ0LjY4MSA5MjEuNzg0IDE1Ny40WiIgZmlsbD0iIzAwMUUyQiIvPgo8cGF0aCBkPSJNMTA1My45NyAxNjQuNzExQzEwNDkuNTUgMTU5LjYwMyAxMDQxLjAyIDE1NS4yOTcgMTAzMC45OSAxNTIuOTkzQzEwNDQuODQgMTQ2LjA4MyAxMDUxLjk2IDEzNi4zNjkgMTA1MS45NiAxMjMuODUxQzEwNTEuOTYgMTE3LjA0MSAxMDUwLjE2IDExMC45MzIgMTA0Ni41NCAxMDUuNzI0QzEwNDIuOTMgMTAwLjUxNyAxMDM3LjgxIDk2LjMxMDYgMTAzMS4yOSA5My40MDYzQzEwMjQuNzYgOTAuNTAyMSAxMDE3LjEzIDg5IDEwMDguNSA4OUg5NTQuNDAyVjk2LjMxMDZIOTU4LjcxOEM5NjAuNTI0IDk2LjMxMDYgOTYyLjEzIDk3LjAxMTcgOTYzLjczNiA5OC42MTRDOTY1LjI0MiAxMDAuMTE2IDk2Ni4wNDUgMTAxLjgxOSA5NjYuMDQ1IDEwMy42MjFWMjExLjM3OUM5NjYuMDQ1IDIxMy4xODEgOTY1LjI0MiAyMTQuODg0IDk2My43MzYgMjE2LjM4NkM5NjIuMjMxIDIxNy44ODggOTYwLjUyNCAyMTguNjg5IDk1OC43MTggMjE4LjY4OUg5NTRWMjI2SDEwMTIuNzJDMTAyMS42NSAyMjYgMTAyOS45OCAyMjQuNDk4IDEwMzcuNTEgMjIxLjQ5M0MxMDQ1LjA0IDIxOC40ODkgMTA1MS4wNiAyMTQuMDgzIDEwNTUuMzggMjA4LjI3NEMxMDU5Ljc5IDIwMi40NjYgMTA2MiAxOTUuMzU1IDEwNjIgMTg3LjE0M0MxMDYxLjkgMTc4LjMzIDEwNTkuMjkgMTcwLjgxOSAxMDUzLjk3IDE2NC43MTFaTTk4Ni42MjEgMjEzLjI4MUM5ODUuMTE1IDIxMS43NzkgOTg0LjMxMiAyMTAuMDc3IDk4NC4zMTIgMjA4LjI3NFYxNTkuOTAzSDEwMTIuMjJDMTAyMi4wNSAxNTkuOTAzIDEwMjkuNTggMTYyLjQwNyAxMDM0LjggMTY3LjQxNEMxMDQwLjAyIDE3Mi40MjIgMTA0Mi42MyAxNzguOTMxIDEwNDIuNjMgMTg2Ljk0M0MxMDQyLjYzIDE5MS43NSAxMDQxLjQyIDE5Ni40NTcgMTAzOS4yMiAyMDAuNzYzQzEwMzYuOTEgMjA1LjE3IDEwMzMuNDkgMjA4LjY3NSAxMDI4Ljg4IDIxMS4zNzlDMTAyNC4zNiAyMTQuMDgzIDEwMTguNzQgMjE1LjQ4NSAxMDEyLjIyIDIxNS40ODVIOTkxLjYzOUM5ODkuODMzIDIxNS40ODUgOTg4LjIyNyAyMTQuNzg0IDk4Ni42MjEgMjEzLjI4MVpNOTg0LjQxMyAxNDkuNTg4VjEwNi42MjZDOTg0LjQxMyAxMDQuODIzIDk4NS4xMTUgMTAzLjIyMSA5ODYuNzIxIDEwMS42MThDOTg4LjIyNyAxMDAuMTE2IDk4OS45MzMgOTkuMzE1IDk5MS43NCA5OS4zMTVIMTAwNC45OUMxMDE0LjUyIDk5LjMxNSAxMDIxLjU1IDEwMS43MTkgMTAyNS45NyAxMDYuMzI1QzEwMzAuMzggMTExLjAzMiAxMDMyLjU5IDExNy4wNDEgMTAzMi41OSAxMjQuNDUyQzEwMzIuNTkgMTMyLjA2MyAxMDMwLjQ4IDEzOC4xNzIgMTAyNi4zNyAxNDIuNzc4QzEwMjIuMjUgMTQ3LjI4NSAxMDE2LjAzIDE0OS41ODggMTAwNy44IDE0OS41ODhIOTg0LjQxM1oiIGZpbGw9IiMwMDFFMkIiLz4KPHBhdGggZD0iTTQzMS45OTkgMTMyLjM4OEM0MjQuMzI5IDEyOC4xOTYgNDE1Ljc2MyAxMjYgNDA2LjUgMTI2QzM5Ny4yMzcgMTI2IDM4OC41NzEgMTI4LjA5NiAzODEuMDAxIDEzMi4zODhDMzczLjMzMSAxMzYuNTc5IDM2Ny4yNTUgMTQyLjY2NyAzNjIuNzczIDE1MC4zNTJDMzU4LjI5MSAxNTguMDM3IDM1NiAxNjcuMDIgMzU2IDE3N0MzNTYgMTg2Ljk4IDM1OC4yOTEgMTk1Ljk2MyAzNjIuNzczIDIwMy42NDhDMzY3LjI1NSAyMTEuMzMzIDM3My4zMzEgMjE3LjQyMSAzODEuMDAxIDIyMS42MTNDMzg4LjY3MSAyMjUuODA0IDM5Ny4yMzcgMjI4IDQwNi41IDIyOEM0MTUuNzYzIDIyOCA0MjQuNDI5IDIyNS45MDQgNDMxLjk5OSAyMjEuNjEzQzQzOS42NjkgMjE3LjQyMSA0NDUuNzQ1IDIxMS4zMzMgNDUwLjIyNyAyMDMuNjQ4QzQ1NC43MDkgMTk1Ljk2MyA0NTcgMTg2Ljk4IDQ1NyAxNzdDNDU3IDE2Ny4wMiA0NTQuNzA5IDE1OC4wMzcgNDUwLjIyNyAxNTAuMzUyQzQ0NS43NDUgMTQyLjY2NyA0MzkuNjY5IDEzNi41NzkgNDMxLjk5OSAxMzIuMzg4Wk00MzkuMzcgMTc3QzQzOS4zNyAxODkuMjc2IDQzNi4zODIgMTk5LjI1NiA0MzAuNDA1IDIwNi40NDJDNDI0LjUyOSAyMTMuNjI4IDQxNi40NjEgMjE3LjMyMSA0MDYuNSAyMTcuMzIxQzM5Ni41NCAyMTcuMzIxIDM4OC40NzEgMjEzLjYyOCAzODIuNTk1IDIwNi40NDJDMzc2LjYxOCAxOTkuMjU2IDM3My42MyAxODkuMjc2IDM3My42MyAxNzdDMzczLjYzIDE2NC43MjQgMzc2LjYxOCAxNTQuNzQ0IDM4Mi41OTUgMTQ3LjU1OEMzODguNDcxIDE0MC4zNzIgMzk2LjU0IDEzNi42NzkgNDA2LjUgMTM2LjY3OUM0MTYuNDYxIDEzNi42NzkgNDI0LjUyOSAxNDAuMzcyIDQzMC40MDUgMTQ3LjU1OEM0MzYuMzgyIDE1NC43NDQgNDM5LjM3IDE2NC43MjQgNDM5LjM3IDE3N1oiIGZpbGw9IiMwMDFFMkIiLz4KPHBhdGggZD0iTTc4NC45OTkgMTMyLjM4OEM3NzcuMzI5IDEyOC4xOTYgNzY4Ljc2MyAxMjYgNzU5LjUgMTI2Qzc1MC4yMzcgMTI2IDc0MS41NzEgMTI4LjA5NiA3MzQuMDAxIDEzMi4zODhDNzI2LjMzMSAxMzYuNTc5IDcyMC4yNTUgMTQyLjY2NyA3MTUuNzczIDE1MC4zNTJDNzExLjI5MSAxNTguMDM3IDcwOSAxNjcuMDIgNzA5IDE3N0M3MDkgMTg2Ljk4IDcxMS4yOTEgMTk1Ljk2MyA3MTUuNzczIDIwMy42NDhDNzIwLjI1NSAyMTEuMzMzIDcyNi4zMzEgMjE3LjQyMSA3MzQuMDAxIDIyMS42MTNDNzQxLjY3MSAyMjUuODA0IDc1MC4yMzcgMjI4IDc1OS41IDIyOEM3NjguNzYzIDIyOCA3NzcuNDI5IDIyNS45MDQgNzg0Ljk5OSAyMjEuNjEzQzc5Mi42NjkgMjE3LjQyMSA3OTguNzQ1IDIxMS4zMzMgODAzLjIyNyAyMDMuNjQ4QzgwNy43MDkgMTk1Ljk2MyA4MTAgMTg2Ljk4IDgxMCAxNzdDODEwIDE2Ny4wMiA4MDcuNzA5IDE1OC4wMzcgODAzLjIyNyAxNTAuMzUyQzc5OC43NDUgMTQyLjY2NyA3OTIuNTY5IDEzNi41NzkgNzg0Ljk5OSAxMzIuMzg4Wk03OTIuMzcgMTc3Qzc5Mi4zNyAxODkuMjc2IDc4OS4zODEgMTk5LjI1NiA3ODMuNDA1IDIwNi40NDJDNzc3LjUyOCAyMTMuNjI4IDc2OS40NiAyMTcuMzIxIDc1OS41IDIxNy4zMjFDNzQ5LjUzOSAyMTcuMzIxIDc0MS40NzEgMjEzLjYyOCA3MzUuNTk1IDIwNi40NDJDNzI5LjYxOCAxOTkuMjU2IDcyNi42MyAxODkuMjc2IDcyNi42MyAxNzdDNzI2LjYzIDE2NC42MjQgNzI5LjYxOCAxNTQuNzQ0IDczNS41OTUgMTQ3LjU1OEM3NDEuNDcxIDE0MC4zNzIgNzQ5LjUzOSAxMzYuNjc5IDc1OS41IDEzNi42NzlDNzY5LjQ2IDEzNi42NzkgNzc3LjUyOCAxNDAuMzcyIDc4My40MDUgMTQ3LjU1OEM3ODkuMjgyIDE1NC43NDQgNzkyLjM3IDE2NC43MjQgNzkyLjM3IDE3N1oiIGZpbGw9IiMwMDFFMkIiLz4KPHBhdGggZD0iTTY0Mi42NCAxMjZDNjM0LjYxNCAxMjYgNjI3LjI5MiAxMjcuNzA0IDYyMC42NzEgMTMxLjExM0M2MTQuMDUgMTM0LjUyMiA2MDguODM0IDEzOS4xMzUgNjA1LjEyMiAxNDUuMDVDNjAxLjQxMSAxNTAuODY1IDU5OS41MDUgMTU3LjM4MyA1OTkuNTA1IDE2NC4zMDFDNTk5LjUwNSAxNzAuNTE3IDYwMC45MDkgMTc2LjIzMiA2MDMuODE4IDE4MS4zNDZDNjA2LjYyNyAxODYuMjU5IDYxMC40MzkgMTkwLjM2OSA2MTUuMjU0IDE5My43NzhMNjAwLjkwOSAyMTMuMjNDNTk5LjEwMyAyMTUuNjM2IDU5OC45MDMgMjE4Ljg0NCA2MDAuMjA3IDIyMS40NTFDNjAxLjYxMSAyMjQuMTU4IDYwNC4yMTkgMjI1Ljc2MyA2MDcuMjI5IDIyNS43NjNINjExLjM0MkM2MDcuMzI5IDIyOC40NyA2MDQuMTE5IDIzMS42NzggNjAxLjkxMiAyMzUuNDg4QzU5OS4zMDQgMjM5Ljc5OSA1OTggMjQ0LjMxMSA1OTggMjQ4LjkyM0M1OTggMjU3LjU0NiA2MDEuODEyIDI2NC42NjUgNjA5LjMzNSAyNjkuOTc5QzYxNi43NTkgMjc1LjI5MyA2MjcuMTkxIDI3OCA2NDAuMzMyIDI3OEM2NDkuNDYxIDI3OCA2NTguMTg4IDI3Ni40OTYgNjY2LjExMyAyNzMuNTg4QzY3NC4xMzggMjcwLjY4MSA2ODAuNjU4IDI2Ni4zNjkgNjg1LjQ3MyAyNjAuNzU1QzY5MC4zODkgMjU1LjE0IDY5Mi44OTcgMjQ4LjMyMiA2OTIuODk3IDI0MC41MDFDNjkyLjg5NyAyMzIuMjggNjg5Ljg4NyAyMjYuNDY0IDY4Mi44NjUgMjIwLjg1QzY3Ni44NDcgMjE2LjEzNyA2NjcuNDE3IDIxMy42MzEgNjU1LjY4IDIxMy42MzFINjE1LjU1NUM2MTUuNDU1IDIxMy42MzEgNjE1LjM1NCAyMTMuNTMgNjE1LjM1NCAyMTMuNTNDNjE1LjM1NCAyMTMuNTMgNjE1LjI1NCAyMTMuMzMgNjE1LjM1NCAyMTMuMjNMNjI1Ljc4NyAxOTkuMTkzQzYyOC41OTYgMjAwLjQ5NiA2MzEuMjA0IDIwMS4yOTggNjMzLjUxMSAyMDEuNzk5QzYzNS45MTggMjAyLjMwMSA2MzguNjI3IDIwMi41MDEgNjQxLjYzNiAyMDIuNTAxQzY1MC4wNjMgMjAyLjUwMSA2NTcuNjg3IDIwMC43OTcgNjY0LjMwNyAxOTcuMzg4QzY3MC45MjggMTkzLjk3OSA2NzYuMjQ1IDE4OS4zNjcgNjgwLjA1NyAxODMuNDUxQzY4My44NjggMTc3LjYzNiA2ODUuNzc0IDE3MS4xMTkgNjg1Ljc3NCAxNjQuMjAxQzY4NS43NzQgMTU2Ljc4MSA2ODIuMTYzIDE0My4yNDUgNjcyLjMzMiAxMzYuMzI3QzY3Mi4zMzIgMTM2LjIyNyA2NzIuNDMzIDEzNi4yMjcgNjcyLjQzMyAxMzYuMjI3TDY5NCAxMzguNjMzVjEyOC43MDdINjU5LjQ5MkM2NTQuMDc1IDEyNy4wMDMgNjQ4LjQ1OCAxMjYgNjQyLjY0IDEyNlpNNjU0LjY3NyAxODguNzY1QzY1MC44NjUgMTkwLjc3IDY0Ni43NTIgMTkxLjg3MyA2NDIuNjQgMTkxLjg3M0M2MzUuOTE5IDE5MS44NzMgNjMwIDE4OS40NjcgNjI0Ljk4NCAxODQuNzU1QzYxOS45NjkgMTgwLjA0MiA2MTcuNDYxIDE3My4xMjQgNjE3LjQ2MSAxNjQuMzAxQzYxNy40NjEgMTU1LjQ3OCA2MTkuOTY5IDE0OC41NTkgNjI0Ljk4NCAxNDMuODQ3QzYzMCAxMzkuMTM1IDYzNS45MTkgMTM2LjcyOCA2NDIuNjQgMTM2LjcyOEM2NDYuODUzIDEzNi43MjggNjUwLjg2NSAxMzcuNzMxIDY1NC42NzcgMTM5LjgzNkM2NTguNDg5IDE0MS44NDIgNjYxLjU5OSAxNDQuOTUgNjY0LjEwNyAxNDkuMDYxQzY2Ni41MTQgMTUzLjE3MiA2NjcuODE4IDE1OC4yODUgNjY3LjgxOCAxNjQuMzAxQzY2Ny44MTggMTcwLjQxNyA2NjYuNjE0IDE3NS41MyA2NjQuMTA3IDE3OS41NDFDNjYxLjY5OSAxODMuNjUyIDY1OC40ODkgMTg2Ljc2IDY1NC42NzcgMTg4Ljc2NVpNNjI3LjQ5MiAyMjUuNjYySDY1NC42NzdDNjYyLjIwMSAyMjUuNjYyIDY2Ny4wMTYgMjI3LjE2NiA2NzAuMjI2IDIzMC4zNzVDNjczLjQzNiAyMzMuNTgzIDY3NS4wNDEgMjM3Ljg5NCA2NzUuMDQxIDI0Mi45MDhDNjc1LjA0MSAyNTAuMjI3IDY3Mi4xMzIgMjU2LjI0MyA2NjYuMzE0IDI2MC43NTVDNjYwLjQ5NSAyNjUuMjY3IDY1Mi42NzEgMjY3LjU3MyA2NDMuMDQxIDI2Ny41NzNDNjM0LjYxNCAyNjcuNTczIDYyNy41OTIgMjY1LjY2OCA2MjIuNDc2IDI2Mi4wNThDNjE3LjM2IDI1OC40NDkgNjE0Ljc1MiAyNTIuOTM0IDYxNC43NTIgMjQ1LjkxNkM2MTQuNzUyIDI0MS41MDQgNjE1Ljk1NiAyMzcuMzkzIDYxOC4zNjQgMjMzLjc4NEM2MjAuNzcxIDIzMC4xNzQgNjIzLjY4IDIyNy41NjcgNjI3LjQ5MiAyMjUuNjYyWiIgZmlsbD0iIzAwMUUyQiIvPgo8cGF0aCBkPSJNMTA4Mi4zNSAyMjQuMzI3QzEwODAuMzcgMjIzLjI0NCAxMDc4Ljg4IDIyMS42NjkgMTA3Ny42OSAyMTkuNzk5QzEwNzYuNiAyMTcuODMxIDEwNzYgMjE1Ljc2NCAxMDc2IDIxMy41QzEwNzYgMjExLjIzNiAxMDc2LjYgMjA5LjA3MSAxMDc3LjY5IDIwNy4yMDFDMTA3OC43OCAyMDUuMjMyIDEwODAuMzcgMjAzLjc1NiAxMDgyLjM1IDIwMi42NzNDMTA4NC4zNCAyMDEuNTkxIDEwODYuNTIgMjAxIDEwODkgMjAxQzEwOTEuNDggMjAxIDEwOTMuNjYgMjAxLjU5MSAxMDk1LjY1IDIwMi42NzNDMTA5Ny42MyAyMDMuNzU2IDEwOTkuMTIgMjA1LjMzMSAxMTAwLjMxIDIwNy4yMDFDMTEwMS40IDIwOS4xNjkgMTEwMiAyMTEuMjM2IDExMDIgMjEzLjVDMTEwMiAyMTUuNzY0IDExMDEuNCAyMTcuOTI5IDExMDAuMzEgMjE5Ljc5OUMxMDk5LjIyIDIyMS43NjggMTA5Ny42MyAyMjMuMjQ0IDEwOTUuNjUgMjI0LjMyN0MxMDkzLjY2IDIyNS40MDkgMTA5MS40OCAyMjYgMTA4OSAyMjZDMTA4Ni42MiAyMjYgMTA4NC4zNCAyMjUuNTA4IDEwODIuMzUgMjI0LjMyN1pNMTA5NC41NiAyMjIuOTQ5QzEwOTYuMjQgMjIyLjA2MyAxMDk3LjQ0IDIyMC42ODUgMTA5OC40MyAyMTkuMTFDMTA5OS4zMiAyMTcuNDM3IDEwOTkuODIgMjE1LjU2NyAxMDk5LjgyIDIxMy41QzEwOTkuODIgMjExLjQzMyAxMDk5LjMyIDIwOS41NjMgMTA5OC40MyAyMDcuODlDMTA5Ny41MyAyMDYuMjE3IDEwOTYuMjQgMjA0LjkzNyAxMDk0LjU2IDIwNC4wNTFDMTA5Mi44NyAyMDMuMTY1IDEwOTEuMDggMjAyLjY3MyAxMDg5IDIwMi42NzNDMTA4Ni45MiAyMDIuNjczIDEwODUuMTMgMjAzLjE2NSAxMDgzLjQ0IDIwNC4wNTFDMTA4MS43NiAyMDQuOTM3IDEwODAuNTYgMjA2LjMxNSAxMDc5LjU3IDIwNy44OUMxMDc4LjY4IDIwOS41NjMgMTA3OC4xOCAyMTEuNDMzIDEwNzguMTggMjEzLjVDMTA3OC4xOCAyMTUuNTY3IDEwNzguNjggMjE3LjQzNyAxMDc5LjU3IDIxOS4xMUMxMDgwLjQ3IDIyMC43ODMgMTA4MS43NiAyMjIuMDYzIDEwODMuNDQgMjIyLjk0OUMxMDg1LjEzIDIyMy44MzUgMTA4Ni45MiAyMjQuMzI3IDEwODkgMjI0LjMyN0MxMDkxLjA4IDIyNC4zMjcgMTA5Mi45NyAyMjMuODM1IDEwOTQuNTYgMjIyLjk0OVpNMTA4My42NCAyMTkuNTA0VjIxOC42MThMMTA4My44NCAyMTguNTJIMTA4NC40NEMxMDg0LjYzIDIxOC41MiAxMDg0LjgzIDIxOC40MjEgMTA4NC45MyAyMTguMzIzQzEwODUuMTMgMjE4LjEyNiAxMDg1LjEzIDIxOC4wMjggMTA4NS4xMyAyMTcuODMxVjIwOC42NzdDMTA4NS4xMyAyMDguNDggMTA4NS4wMyAyMDguMjg0IDEwODQuOTMgMjA4LjE4NUMxMDg0LjczIDIwNy45ODggMTA4NC42MyAyMDcuOTg4IDEwODQuNDQgMjA3Ljk4OEgxMDgzLjg0TDEwODMuNjQgMjA3Ljg5VjIwNy4wMDRMMTA4My44NCAyMDYuOTA2SDEwODlDMTA5MC40OSAyMDYuOTA2IDEwOTEuNTggMjA3LjIwMSAxMDkyLjQ3IDIwNy44OUMxMDkzLjM3IDIwOC41NzkgMTA5My43NiAyMDkuNDY1IDEwOTMuNzYgMjEwLjY0NkMxMDkzLjc2IDIxMS41MzIgMTA5My40NyAyMTIuNDE3IDEwOTIuNzcgMjEzLjAwOEMxMDkyLjA4IDIxMy42OTcgMTA5MS4yOCAyMTQuMDkxIDEwOTAuMjkgMjE0LjE4OUwxMDkxLjQ4IDIxNC41ODNMMTA5My43NiAyMTguMjI0QzEwOTMuOTYgMjE4LjUyIDEwOTQuMTYgMjE4LjYxOCAxMDk0LjQ2IDIxOC42MThIMTA5NS4wNUwxMDk1LjE1IDIxOC43MTdWMjE5LjYwMkwxMDk1LjA1IDIxOS43MDFIMTA5MS45OEwxMDkxLjc4IDIxOS42MDJMMTA4OC42IDIxNC4yODdIMTA4Ny44MVYyMTcuODMxQzEwODcuODEgMjE4LjAyOCAxMDg3LjkxIDIxOC4yMjQgMTA4OC4wMSAyMTguMzIzQzEwODguMjEgMjE4LjUyIDEwODguMzEgMjE4LjUyIDEwODguNSAyMTguNTJIMTA4OS4xTDEwODkuMyAyMTguNjE4VjIxOS41MDRMMTA4OS4xIDIxOS42MDJIMTA4My44NEwxMDgzLjY0IDIxOS41MDRaTTEwODguNyAyMTMuMDA4QzEwODkuNSAyMTMuMDA4IDEwOTAuMTkgMjEyLjgxMSAxMDkwLjU5IDIxMi4zMTlDMTA5MC45OCAyMTEuOTI1IDEwOTEuMjggMjExLjIzNiAxMDkxLjI4IDIxMC40NDlDMTA5MS4yOCAyMDkuNjYxIDEwOTEuMDggMjA5LjA3MSAxMDkwLjY5IDIwOC41NzlDMTA5MC4yOSAyMDguMDg3IDEwODkuNjkgMjA3Ljg5IDEwODkgMjA3Ljg5SDEwODguNkMxMDg4LjQgMjA3Ljg5IDEwODguMjEgMjA3Ljk4OCAxMDg4LjExIDIwOC4wODdDMTA4Ny45MSAyMDguMjgzIDEwODcuOTEgMjA4LjM4MiAxMDg3LjkxIDIwOC41NzlWMjEzLjAwOEgxMDg4LjdaIiBmaWxsPSIjMDAxRTJCIi8+Cjwvc3ZnPgo=;" parent="1" vertex="1">
          <mxGeometry x="600" y="280" width="87.21" height="22" as="geometry" />
        </mxCell>
        <mxCell id="cegJzy45TkoHLQF3x1ZN-45" style="edgeStyle=orthogonalEdgeStyle;rounded=0;orthogonalLoop=1;jettySize=auto;html=1;exitX=1;exitY=0.5;exitDx=0;exitDy=0;entryX=0;entryY=0.5;entryDx=0;entryDy=0;" parent="1" source="cegJzy45TkoHLQF3x1ZN-27" target="cegJzy45TkoHLQF3x1ZN-44" edge="1">
          <mxGeometry relative="1" as="geometry" />
        </mxCell>
        <mxCell id="cegJzy45TkoHLQF3x1ZN-27" value="Chains" style="rounded=1;whiteSpace=wrap;html=1;fillColor=#dae8fc;strokeColor=#6c8ebf;" parent="1" vertex="1">
          <mxGeometry x="316.5" y="380" width="120" height="60" as="geometry" />
        </mxCell>
        <mxCell id="cegJzy45TkoHLQF3x1ZN-30" style="edgeStyle=orthogonalEdgeStyle;rounded=0;orthogonalLoop=1;jettySize=auto;html=1;exitX=0.5;exitY=1;exitDx=0;exitDy=0;startArrow=classic;startFill=1;" parent="1" source="cegJzy45TkoHLQF3x1ZN-28" target="cegJzy45TkoHLQF3x1ZN-29" edge="1">
          <mxGeometry relative="1" as="geometry" />
        </mxCell>
        <mxCell id="cegJzy45TkoHLQF3x1ZN-28" value="不同类型的链" style="text;html=1;strokeColor=none;fillColor=none;align=center;verticalAlign=middle;whiteSpace=wrap;rounded=0;" parent="1" vertex="1">
          <mxGeometry x="339" y="440" width="75" height="30" as="geometry" />
        </mxCell>
        <mxCell id="cegJzy45TkoHLQF3x1ZN-29" value="" style="sketch=0;outlineConnect=0;fontColor=#232F3E;gradientColor=none;fillColor=#01A88D;strokeColor=none;dashed=0;verticalLabelPosition=bottom;verticalAlign=top;align=center;html=1;fontSize=12;fontStyle=0;aspect=fixed;pointerEvents=1;shape=mxgraph.aws4.sagemaker_model;" parent="1" vertex="1">
          <mxGeometry x="337.5" y="520" width="78" height="78" as="geometry" />
        </mxCell>
        <mxCell id="cegJzy45TkoHLQF3x1ZN-32" value="不同的大语言模型&lt;br&gt;(OpenAI、LLaMA\、通义千文、ChatGLM 等)" style="text;html=1;strokeColor=none;fillColor=none;align=center;verticalAlign=middle;whiteSpace=wrap;rounded=0;" parent="1" vertex="1">
          <mxGeometry x="245.5" y="610" width="262" height="30" as="geometry" />
        </mxCell>
        <mxCell id="cegJzy45TkoHLQF3x1ZN-35" style="edgeStyle=orthogonalEdgeStyle;rounded=0;orthogonalLoop=1;jettySize=auto;html=1;exitX=0.5;exitY=1;exitDx=0;exitDy=0;entryX=0.5;entryY=0;entryDx=0;entryDy=0;" parent="1" source="cegJzy45TkoHLQF3x1ZN-33" target="cegJzy45TkoHLQF3x1ZN-27" edge="1">
          <mxGeometry relative="1" as="geometry" />
        </mxCell>
        <mxCell id="cegJzy45TkoHLQF3x1ZN-33" value="提示词" style="rounded=1;whiteSpace=wrap;html=1;fillColor=#f8cecc;strokeColor=#b85450;" parent="1" vertex="1">
          <mxGeometry x="240" y="245" width="120" height="60" as="geometry" />
        </mxCell>
        <mxCell id="cegJzy45TkoHLQF3x1ZN-36" style="edgeStyle=orthogonalEdgeStyle;rounded=0;orthogonalLoop=1;jettySize=auto;html=1;exitX=0.5;exitY=1;exitDx=0;exitDy=0;entryX=0.5;entryY=0;entryDx=0;entryDy=0;startArrow=classic;startFill=1;" parent="1" source="cegJzy45TkoHLQF3x1ZN-34" target="cegJzy45TkoHLQF3x1ZN-27" edge="1">
          <mxGeometry relative="1" as="geometry" />
        </mxCell>
        <mxCell id="cegJzy45TkoHLQF3x1ZN-34" value="历史消息" style="rounded=1;whiteSpace=wrap;html=1;fillColor=#e1d5e7;strokeColor=#9673a6;" parent="1" vertex="1">
          <mxGeometry x="380" y="245" width="120" height="60" as="geometry" />
        </mxCell>
        <mxCell id="cegJzy45TkoHLQF3x1ZN-40" style="edgeStyle=orthogonalEdgeStyle;rounded=0;orthogonalLoop=1;jettySize=auto;html=1;exitX=0.98;exitY=0.51;exitDx=0;exitDy=0;exitPerimeter=0;entryX=0;entryY=0.5;entryDx=0;entryDy=0;" parent="1" source="cegJzy45TkoHLQF3x1ZN-39" target="cegJzy45TkoHLQF3x1ZN-27" edge="1">
          <mxGeometry relative="1" as="geometry" />
        </mxCell>
        <mxCell id="cegJzy45TkoHLQF3x1ZN-39" value="" style="points=[[0.35,0,0],[0.98,0.51,0],[1,0.71,0],[0.67,1,0],[0,0.795,0],[0,0.65,0]];verticalLabelPosition=bottom;sketch=0;html=1;verticalAlign=top;aspect=fixed;align=center;pointerEvents=1;shape=mxgraph.cisco19.user;fillColor=#005073;strokeColor=none;" parent="1" vertex="1">
          <mxGeometry x="140" y="365" width="90" height="90" as="geometry" />
        </mxCell>
        <mxCell id="cegJzy45TkoHLQF3x1ZN-41" value="用户" style="text;html=1;strokeColor=none;fillColor=none;align=center;verticalAlign=middle;whiteSpace=wrap;rounded=0;" parent="1" vertex="1">
          <mxGeometry x="155" y="455" width="60" height="30" as="geometry" />
        </mxCell>
        <mxCell id="cegJzy45TkoHLQF3x1ZN-42" value="提问" style="text;html=1;strokeColor=none;fillColor=none;align=center;verticalAlign=middle;whiteSpace=wrap;rounded=0;" parent="1" vertex="1">
          <mxGeometry x="240" y="380" width="60" height="30" as="geometry" />
        </mxCell>
        <mxCell id="cegJzy45TkoHLQF3x1ZN-44" value="答案" style="shape=parallelogram;perimeter=parallelogramPerimeter;whiteSpace=wrap;html=1;fixedSize=1;fillColor=#d5e8d4;strokeColor=#82b366;" parent="1" vertex="1">
          <mxGeometry x="660" y="380" width="120" height="60" as="geometry" />
        </mxCell>
        <mxCell id="Feqt6_g3H8BGhSvurpH0-1" value="检索" style="text;html=1;strokeColor=none;fillColor=none;align=center;verticalAlign=middle;whiteSpace=wrap;rounded=0;" vertex="1" parent="1">
          <mxGeometry x="490" y="365" width="60" height="30" as="geometry" />
        </mxCell>
        <mxCell id="Feqt6_g3H8BGhSvurpH0-2" value="生成" style="text;html=1;strokeColor=none;fillColor=none;align=center;verticalAlign=middle;whiteSpace=wrap;rounded=0;" vertex="1" parent="1">
          <mxGeometry x="490" y="410" width="60" height="30" as="geometry" />
        </mxCell>
      </root>
    </mxGraphModel>
  </diagram>
</mxfile>
